GSerif01-TextRegular05.ufo
<glyph name="one" format="1">
  <advance width="432"/>
  <unicode hex="0031"/>
  <outline>
    <contour>
      <point x="53" y="44" type="line"/>
      <point x="53" y="0" type="line"/>
      <point x="403" y="0" type="line"/>
      <point x="403" y="44" type="line"/>
      <point x="274" y="44" type="line"/>
      <point x="274" y="44" type="line"/>
      <point x="182" y="44" type="line"/>
      <point x="182" y="44" type="line"/>
    </contour>
    <contour>
      <point x="182" y="698" type="line"/>
      <point x="182" y="0" type="line"/>
      <point x="274" y="0" type="line"/>
      <point x="274" y="710" type="line"/>
      <point x="190" y="710" type="line"/>
      <point x="43" y="680" type="line"/>
      <point x="43" y="633" type="line"/>
      <point x="249" y="669" type="line"/>
    </contour>
  </outline>
</glyph>
<glyph name="A" format="1">
  <advance width="662"/>
  <unicode hex="0041"/>
  <outline>
    <contour>
      <point x="61" y="0" type="line"/>
      <point x="108" y="0" type="line"/>
      <point x="335" y="710" type="line"/>
      <point x="288" y="710" type="line"/>
    </contour>
    <contour>
      <point x="515" y="0" type="line"/>
      <point x="605" y="0" type="line"/>
      <point x="375" y="710" type="line"/>
      <point x="309" y="710" type="line"/>
      <point x="303" y="667" type="line"/>
    </contour>
    <contour>
      <point x="185" y="291" type="line"/>
      <point x="175" y="250" type="line"/>
      <point x="450" y="250" type="line"/>
      <point x="449" y="291" type="line"/>
    </contour>
    <contour>
      <point x="10" y="0" type="line"/>
      <point x="222" y="0" type="line"/>
      <point x="222" y="34" type="line"/>
      <point x="200" y="34" type="line" smooth="yes"/>
      <point x="152" y="34"/>
      <point x="126" y="43"/>
      <point x="126" y="55" type="curve"/>
      <point x="90" y="91" type="line"/>
      <point x="76" y="48"/>
      <point x="50" y="34"/>
      <point x="17" y="34" type="curve"/>
      <point x="10" y="34" type="line"/>
    </contour>
    <contour>
      <point x="652" y="0" type="line"/>
      <point x="652" y="34" type="line"/>
      <point x="647" y="34" type="line"/>
      <point x="616" y="34"/>
      <point x="593" y="37"/>
      <point x="583" y="68" type="curve"/>
      <point x="501" y="44" type="line"/>
      <point x="501" y="37"/>
      <point x="458" y="34"/>
      <point x="421" y="34" type="curve" smooth="yes"/>
      <point x="404" y="34" type="line"/>
      <point x="404" y="0" type="line"/>
    </contour>
  </outline>
</glyph>
<glyph name="B" format="1">
  <advance width="671"/>
  <unicode hex="0042"/>
  <outline>
    <contour>
      <point x="141" y="0" type="line"/>
      <point x="234" y="0" type="line"/>
      <point x="234" y="710" type="line"/>
      <point x="141" y="710" type="line"/>
    </contour>
    <contour>
      <point x="355" y="0" type="line" smooth="yes"/>
      <point x="524" y="0"/>
      <point x="619" y="76"/>
      <point x="619" y="199" type="curve" smooth="yes"/>
      <point x="619" y="311"/>
      <point x="524" y="384"/>
      <point x="346" y="384" type="curve"/>
      <point x="330" y="364" type="line"/>
      <point x="496" y="364"/>
      <point x="581" y="430"/>
      <point x="581" y="530" type="curve" smooth="yes"/>
      <point x="581" y="640"/>
      <point x="495" y="710"/>
      <point x="338" y="710" type="curve" smooth="yes"/>
      <point x="50" y="710" type="line"/>
      <point x="50" y="676" type="line"/>
      <point x="58" y="676" type="line" smooth="yes"/>
      <point x="103" y="676"/>
      <point x="141" y="669"/>
      <point x="141" y="640" type="curve"/>
      <point x="189" y="666" type="line"/>
      <point x="337" y="666" type="line" smooth="yes"/>
      <point x="443" y="666"/>
      <point x="487" y="616"/>
      <point x="487" y="529" type="curve" smooth="yes"/>
      <point x="487" y="449"/>
      <point x="448" y="393"/>
      <point x="338" y="393" type="curve" smooth="yes"/>
      <point x="190" y="393" type="line"/>
      <point x="190" y="350" type="line"/>
      <point x="353" y="350" type="line" smooth="yes"/>
      <point x="475" y="350"/>
      <point x="523" y="286"/>
      <point x="523" y="200" type="curve" smooth="yes"/>
      <point x="523" y="99"/>
      <point x="471" y="44"/>
      <point x="353" y="44" type="curve" smooth="yes"/>
      <point x="203" y="44" type="line"/>
      <point x="141" y="70" type="line"/>
      <point x="141" y="41"/>
      <point x="104" y="34"/>
      <point x="58" y="34" type="curve" smooth="yes"/>
      <point x="50" y="34" type="line"/>
      <point x="50" y="0" type="line"/>
    </contour>
  </outline>
</glyph>
<glyph name="D" format="1">
  <advance width="777"/>
  <unicode hex="0044"/>
  <outline>
    <contour>
      <point x="141" y="0" type="line"/>
      <point x="234" y="0" type="line"/>
      <point x="234" y="710" type="line"/>
      <point x="141" y="710" type="line"/>
    </contour>
    <contour>
      <point x="198" y="666" type="line"/>
      <point x="353" y="666" type="line" smooth="yes"/>
      <point x="523" y="666"/>
      <point x="629" y="555"/>
      <point x="629" y="357" type="curve" smooth="yes"/>
      <point x="629" y="160"/>
      <point x="523" y="44"/>
      <point x="353" y="44" type="curve" smooth="yes"/>
      <point x="217" y="44" type="line"/>
      <point x="141" y="70" type="line"/>
      <point x="141" y="41"/>
      <point x="105" y="34"/>
      <point x="59" y="34" type="curve" smooth="yes"/>
      <point x="51" y="34" type="line"/>
      <point x="51" y="0" type="line"/>
      <point x="353" y="0" type="line" smooth="yes"/>
      <point x="576" y="0"/>
      <point x="728" y="141"/>
      <point x="728" y="357" type="curve" smooth="yes"/>
      <point x="728" y="574"/>
      <point x="576" y="710"/>
      <point x="353" y="710" type="curve" smooth="yes"/>
      <point x="51" y="710" type="line"/>
      <point x="51" y="676" type="line"/>
      <point x="59" y="676" type="line" smooth="yes"/>
      <point x="104" y="676"/>
      <point x="141" y="668"/>
      <point x="141" y="640" type="curve"/>
    </contour>
  </outline>
</glyph>
<glyph name="E" format="1">
  <advance width="637"/>
  <unicode hex="0045"/>
  <outline>
    <contour>
      <point x="141" y="0" type="line"/>
      <point x="234" y="0" type="line"/>
      <point x="234" y="710" type="line"/>
      <point x="141" y="710" type="line"/>
    </contour>
    <contour>
      <point x="204" y="385" type="line"/>
      <point x="204" y="341" type="line"/>
      <point x="448" y="341" type="line"/>
      <point x="448" y="385" type="line"/>
    </contour>
    <contour>
      <point x="50" y="710" type="line"/>
      <point x="50" y="676" type="line"/>
      <point x="58" y="676" type="line" smooth="yes"/>
      <point x="103" y="676"/>
      <point x="141" y="669"/>
      <point x="141" y="640" type="curve"/>
      <point x="201" y="666" type="line"/>
      <point x="372" y="666" type="line" smooth="yes"/>
      <point x="458" y="666"/>
      <point x="491" y="655"/>
      <point x="498" y="616" type="curve" smooth="yes"/>
      <point x="513" y="525" type="line"/>
      <point x="551" y="525" type="line"/>
      <point x="551" y="710" type="line"/>
    </contour>
    <contour>
      <point x="50" y="0" type="line"/>
      <point x="575" y="0" type="line"/>
      <point x="575" y="210" type="line"/>
      <point x="536" y="210" type="line"/>
      <point x="521" y="96" type="line" smooth="yes"/>
      <point x="515" y="55"/>
      <point x="481" y="44"/>
      <point x="395" y="44" type="curve" smooth="yes"/>
      <point x="208" y="44" type="line"/>
      <point x="141" y="70" type="line"/>
      <point x="141" y="41"/>
      <point x="104" y="34"/>
      <point x="58" y="34" type="curve" smooth="yes"/>
      <point x="50" y="34" type="line"/>
    </contour>
  </outline>
</glyph>
<glyph name="I" format="1">
  <advance width="375"/>
  <unicode hex="0049"/>
  <outline>
    <contour>
      <point x="141" y="0" type="line"/>
      <point x="234" y="0" type="line"/>
      <point x="234" y="710" type="line"/>
      <point x="141" y="710" type="line"/>
    </contour>
    <contour>
      <point x="234" y="640" type="line"/>
      <point x="234" y="669"/>
      <point x="271" y="676"/>
      <point x="316" y="676" type="curve"/>
      <point x="324" y="676" type="line"/>
      <point x="324" y="710" type="line"/>
      <point x="50" y="710" type="line"/>
      <point x="50" y="676" type="line"/>
      <point x="58" y="676" type="line"/>
      <point x="103" y="676"/>
      <point x="141" y="669"/>
      <point x="141" y="640" type="curve"/>
    </contour>
    <contour>
      <point x="141" y="70" type="line"/>
      <point x="141" y="41"/>
      <point x="103" y="34"/>
      <point x="58" y="34" type="curve"/>
      <point x="50" y="34" type="line"/>
      <point x="50" y="0" type="line"/>
      <point x="324" y="0" type="line"/>
      <point x="324" y="34" type="line"/>
      <point x="316" y="34" type="line"/>
      <point x="271" y="34"/>
      <point x="234" y="41"/>
      <point x="234" y="70" type="curve"/>
    </contour>
  </outline>
</glyph>
<glyph name="N" format="1">
  <advance width="783"/>
  <unicode hex="004E"/>
  <outline>
    <contour>
      <point x="50" y="0" type="line"/>
      <point x="294" y="0" type="line"/>
      <point x="294" y="34" type="line"/>
      <point x="273" y="34" type="line"/>
      <point x="230" y="34"/>
      <point x="191" y="39"/>
      <point x="191" y="58" type="curve"/>
      <point x="141" y="86" type="line"/>
      <point x="141" y="47"/>
      <point x="104" y="34"/>
      <point x="61" y="34" type="curve"/>
      <point x="50" y="34" type="line"/>
    </contour>
    <contour>
      <point x="740" y="710" type="line"/>
      <point x="497" y="710" type="line"/>
      <point x="497" y="676" type="line"/>
      <point x="518" y="676" type="line"/>
      <point x="561" y="676"/>
      <point x="599" y="671"/>
      <point x="599" y="652" type="curve"/>
      <point x="650" y="624" type="line"/>
      <point x="650" y="663"/>
      <point x="686" y="676"/>
      <point x="729" y="676" type="curve"/>
      <point x="740" y="676" type="line"/>
    </contour>
    <contour>
      <point x="50" y="710" type="line"/>
      <point x="50" y="676" type="line"/>
      <point x="61" y="676" type="line"/>
      <point x="102" y="676"/>
      <point x="141" y="669"/>
      <point x="141" y="640" type="curve"/>
      <point x="141" y="0" type="line"/>
      <point x="191" y="0" type="line"/>
      <point x="191" y="697" type="line"/>
      <point x="177" y="681" type="line"/>
      <point x="566" y="0" type="line"/>
      <point x="650" y="0" type="line"/>
      <point x="650" y="710" type="line"/>
      <point x="599" y="710" type="line"/>
      <point x="599" y="65" type="line"/>
      <point x="628" y="69" type="line"/>
      <point x="261" y="710" type="line"/>
    </contour>
  </outline>
</glyph>
<glyph name="O" format="1">
  <advance width="797"/>
  <unicode hex="004F"/>
  <outline>
    <contour>
      <point x="398" y="-10" type="curve" smooth="yes"/>
      <point x="593" y="-10"/>
      <point x="748" y="139"/>
      <point x="748" y="355" type="curve" smooth="yes"/>
      <point x="748" y="572"/>
      <point x="593" y="720"/>
      <point x="398" y="720" type="curve" smooth="yes"/>
      <point x="203" y="720"/>
      <point x="49" y="572"/>
      <point x="49" y="355" type="curve" smooth="yes"/>
      <point x="49" y="139"/>
      <point x="203" y="-10"/>
    </contour>
    <contour>
      <point x="398" y="35" type="curve" smooth="yes"/>
      <point x="253" y="35"/>
      <point x="148" y="159"/>
      <point x="148" y="355" type="curve" smooth="yes"/>
      <point x="148" y="551"/>
      <point x="253" y="675"/>
      <point x="398" y="675" type="curve" smooth="yes"/>
      <point x="544" y="675"/>
      <point x="649" y="551"/>
      <point x="649" y="355" type="curve" smooth="yes"/>
      <point x="649" y="159"/>
      <point x="544" y="35"/>
    </contour>
  </outline>
</glyph>
<glyph name="P" format="1">
  <advance width="643"/>
  <unicode hex="0050"/>
  <outline>
    <contour>
      <point x="142" y="0" type="line"/>
      <point x="235" y="0" type="line"/>
      <point x="235" y="710" type="line"/>
      <point x="142" y="710" type="line"/>
    </contour>
    <contour>
      <point x="52" y="0" type="line"/>
      <point x="338" y="0" type="line"/>
      <point x="338" y="34" type="line"/>
      <point x="322" y="34" type="line"/>
      <point x="281" y="34"/>
      <point x="235" y="37"/>
      <point x="235" y="66" type="curve"/>
      <point x="142" y="70" type="line"/>
      <point x="142" y="41"/>
      <point x="105" y="34"/>
      <point x="60" y="34" type="curve" smooth="yes"/>
      <point x="52" y="34" type="line"/>
    </contour>
    <contour>
      <point x="52" y="710" type="line"/>
      <point x="52" y="676" type="line"/>
      <point x="60" y="676" type="line" smooth="yes"/>
      <point x="105" y="676"/>
      <point x="142" y="669"/>
      <point x="142" y="640" type="curve"/>
      <point x="207" y="666" type="line"/>
      <point x="340" y="666" type="line" smooth="yes"/>
      <point x="448" y="666"/>
      <point x="503" y="610"/>
      <point x="503" y="506" type="curve"/>
      <point x="503" y="403"/>
      <point x="448" y="339"/>
      <point x="335" y="339" type="curve" smooth="yes"/>
      <point x="191" y="339" type="line"/>
      <point x="191" y="296" type="line"/>
      <point x="336" y="296" type="line" smooth="yes"/>
      <point x="498" y="296"/>
      <point x="600" y="380"/>
      <point x="600" y="507" type="curve"/>
      <point x="600" y="634"/>
      <point x="503" y="710"/>
      <point x="341" y="710" type="curve" smooth="yes"/>
    </contour>
  </outline>
</glyph>
<glyph name="U" format="1">
  <advance width="787"/>
  <unicode hex="0055"/>
  <outline>
    <contour>
      <point x="225" y="254" type="curve" smooth="yes"/>
      <point x="225" y="710" type="line"/>
      <point x="132" y="710" type="line"/>
      <point x="132" y="253" type="line" smooth="yes"/>
      <point x="132" y="71"/>
      <point x="242" y="-10"/>
      <point x="400" y="-10" type="curve" smooth="yes"/>
      <point x="545" y="-10"/>
      <point x="655" y="69"/>
      <point x="655" y="258" type="curve" smooth="yes"/>
      <point x="655" y="710" type="line"/>
      <point x="604" y="710" type="line"/>
      <point x="604" y="258" type="line" smooth="yes"/>
      <point x="604" y="107"/>
      <point x="530" y="48"/>
      <point x="417" y="48" type="curve" smooth="yes"/>
      <point x="302" y="48"/>
      <point x="225" y="103"/>
    </contour>
    <contour>
      <point x="41" y="710" type="line"/>
      <point x="41" y="676" type="line"/>
      <point x="50" y="676" type="line" smooth="yes"/>
      <point x="95" y="676"/>
      <point x="132" y="669"/>
      <point x="132" y="640" type="curve"/>
      <point x="225" y="666" type="line"/>
      <point x="225" y="673"/>
      <point x="270" y="676"/>
      <point x="306" y="676" type="curve" smooth="yes"/>
      <point x="315" y="676" type="line"/>
      <point x="315" y="710" type="line"/>
    </contour>
    <contour>
      <point x="745" y="710" type="line"/>
      <point x="506" y="710" type="line"/>
      <point x="506" y="676" type="line"/>
      <point x="523" y="676" type="line" smooth="yes"/>
      <point x="570" y="676"/>
      <point x="604" y="669"/>
      <point x="604" y="652" type="curve"/>
      <point x="655" y="621" type="line"/>
      <point x="655" y="662"/>
      <point x="692" y="676"/>
      <point x="734" y="676" type="curve" smooth="yes"/>
      <point x="745" y="676" type="line"/>
    </contour>
  </outline>
</glyph>
<glyph name="X" format="1">
  <advance width="728"/>
  <unicode hex="0058"/>
  <outline>
    <contour>
      <point x="84" y="707" type="line"/>
      <point x="327" y="340" type="line"/>
      <point x="332" y="337" type="line"/>
      <point x="558" y="0" type="line"/>
      <point x="660" y="3" type="line"/>
      <point x="399" y="389" type="line"/>
      <point x="395" y="392" type="line"/>
      <point x="186" y="710" type="line"/>
    </contour>
    <contour>
      <point x="331" y="377" type="line"/>
      <point x="67" y="3" type="line"/>
      <point x="121" y="0" type="line"/>
      <point x="360" y="342" type="line"/>
    </contour>
    <contour>
      <point x="393" y="356" type="line"/>
      <point x="638" y="708" type="line"/>
      <point x="583" y="710" type="line"/>
      <point x="363" y="388" type="line"/>
    </contour>
    <contour>
      <point x="675" y="710" type="line"/>
      <point x="447" y="710" type="line"/>
      <point x="447" y="676" type="line"/>
      <point x="464" y="676" type="line" smooth="yes"/>
      <point x="518" y="676"/>
      <point x="546" y="666"/>
      <point x="546" y="655" type="curve"/>
      <point x="575" y="618" type="line"/>
      <point x="605" y="661"/>
      <point x="628" y="676"/>
      <point x="666" y="676" type="curve" smooth="yes"/>
      <point x="675" y="676" type="line"/>
    </contour>
    <contour>
      <point x="29" y="0" type="line"/>
      <point x="258" y="0" type="line"/>
      <point x="258" y="34" type="line"/>
      <point x="241" y="34" type="line" smooth="yes"/>
      <point x="186" y="34"/>
      <point x="158" y="43"/>
      <point x="158" y="55" type="curve"/>
      <point x="129" y="91" type="line"/>
      <point x="100" y="50"/>
      <point x="78" y="34"/>
      <point x="39" y="34" type="curve" smooth="yes"/>
      <point x="29" y="34" type="line"/>
    </contour>
    <contour>
      <point x="48" y="676" type="line"/>
      <point x="53" y="676" type="line" smooth="yes"/>
      <point x="87" y="676"/>
      <point x="107" y="673"/>
      <point x="128" y="642" type="curve"/>
      <point x="215" y="666" type="line"/>
      <point x="215" y="673"/>
      <point x="259" y="676"/>
      <point x="296" y="676" type="curve" smooth="yes"/>
      <point x="313" y="676" type="line"/>
      <point x="313" y="710" type="line"/>
      <point x="48" y="710" type="line"/>
    </contour>
    <contour>
      <point x="700" y="0" type="line"/>
      <point x="700" y="34" type="line"/>
      <point x="690" y="34" type="line" smooth="yes"/>
      <point x="656" y="34"/>
      <point x="636" y="39"/>
      <point x="615" y="69" type="curve"/>
      <point x="527" y="45" type="line"/>
      <point x="527" y="38"/>
      <point x="484" y="34"/>
      <point x="447" y="34" type="curve" smooth="yes"/>
      <point x="430" y="34" type="line"/>
      <point x="430" y="0" type="line"/>
    </contour>
  </outline>
</glyph>
<glyph name="a" format="1">
  <advance width="566"/>
  <unicode hex="0061"/>
  <outline>
    <contour>
      <point x="406" y="315" type="line"/>
      <point x="177" y="290"/>
      <point x="55" y="241"/>
      <point x="55" y="130" type="curve" smooth="yes"/>
      <point x="55" y="42"/>
      <point x="129" y="-11"/>
      <point x="219" y="-11" type="curve" smooth="yes"/>
      <point x="305" y="-11"/>
      <point x="372" y="38"/>
      <point x="403" y="113" type="curve"/>
      <point x="429" y="146"/>
      <point x="392" y="137"/>
      <point x="383" y="135" type="curve"/>
      <point x="358" y="78"/>
      <point x="306" y="34"/>
      <point x="244" y="34" type="curve" smooth="yes"/>
      <point x="186" y="34"/>
      <point x="148" y="70"/>
      <point x="148" y="130" type="curve" smooth="yes"/>
      <point x="148" y="212"/>
      <point x="229" y="257"/>
      <point x="404" y="274" type="curve"/>
    </contour>
    <contour>
      <point x="465" y="385" type="line" smooth="yes"/>
      <point x="465" y="511"/>
      <point x="365" y="550"/>
      <point x="274" y="550" type="curve" smooth="yes"/>
      <point x="185" y="550"/>
      <point x="115" y="509"/>
      <point x="88" y="469" type="curve"/>
      <point x="88" y="385" type="line"/>
      <point x="174" y="385" type="line"/>
      <point x="174" y="492" type="line"/>
      <point x="148" y="492"/>
      <point x="127" y="466"/>
      <point x="131" y="417" type="curve"/>
      <point x="156" y="468"/>
      <point x="196" y="506"/>
      <point x="274" y="506" type="curve" smooth="yes"/>
      <point x="335" y="506"/>
      <point x="377" y="476"/>
      <point x="377" y="379" type="curve" smooth="yes"/>
      <point x="377" y="101" type="line"/>
      <point x="386" y="102" type="line"/>
      <point x="386" y="0" type="line"/>
      <point x="548" y="0" type="line"/>
      <point x="548" y="33" type="line"/>
      <point x="547" y="33" type="line"/>
      <point x="500" y="33"/>
      <point x="465" y="40"/>
      <point x="465" y="69" type="curve" smooth="yes"/>
    </contour>
  </outline>
</glyph>
<glyph name="d" format="1">
  <advance width="677"/>
  <unicode hex="0064"/>
  <outline>
    <contour>
      <point x="564" y="750" type="line"/>
      <point x="388" y="750" type="line"/>
      <point x="388" y="715" type="line"/>
      <point x="399" y="713" type="line" smooth="yes"/>
      <point x="451" y="704"/>
      <point x="475" y="697"/>
      <point x="475" y="668" type="curve" smooth="yes"/>
      <point x="475" y="113" type="line"/>
      <point x="482" y="116" type="line"/>
      <point x="482" y="0" type="line"/>
      <point x="650" y="0" type="line"/>
      <point x="650" y="33" type="line"/>
      <point x="648" y="33" type="line"/>
      <point x="600" y="33"/>
      <point x="564" y="40"/>
      <point x="564" y="69" type="curve"/>
    </contour>
    <contour>
      <point x="145" y="266" type="curve" smooth="yes"/>
      <point x="145" y="410"/>
      <point x="201" y="503"/>
      <point x="304" y="503" type="curve" smooth="yes"/>
      <point x="389" y="503"/>
      <point x="452" y="458"/>
      <point x="499" y="358" type="curve"/>
      <point x="532" y="372" type="line"/>
      <point x="469" y="498"/>
      <point x="406" y="550"/>
      <point x="301" y="550" type="curve" smooth="yes"/>
      <point x="152" y="550"/>
      <point x="51" y="435"/>
      <point x="51" y="266" type="curve" smooth="yes"/>
      <point x="51" y="100"/>
      <point x="151" y="-11"/>
      <point x="297" y="-11" type="curve" smooth="yes"/>
      <point x="403" y="-11"/>
      <point x="463" y="49"/>
      <point x="529" y="176" type="curve"/>
      <point x="497" y="193" type="line"/>
      <point x="451" y="92"/>
      <point x="388" y="36"/>
      <point x="301" y="36" type="curve" smooth="yes"/>
      <point x="201" y="36"/>
      <point x="145" y="127"/>
    </contour>
  </outline>
</glyph>
<glyph name="f" format="1">
  <advance width="407"/>
  <unicode hex="0066"/>
  <outline>
    <contour>
      <point x="40" y="33" type="line"/>
      <point x="40" y="0" type="line"/>
      <point x="346" y="0" type="line"/>
      <point x="346" y="33" type="line"/>
      <point x="334" y="33" type="line" smooth="yes"/>
      <point x="277" y="33"/>
      <point x="234" y="36"/>
      <point x="234" y="51" type="curve"/>
      <point x="145" y="69" type="line"/>
      <point x="145" y="40"/>
      <point x="109" y="33"/>
      <point x="51" y="33" type="curve"/>
    </contour>
    <contour>
      <point x="40" y="540" type="line"/>
      <point x="40" y="497" type="line"/>
      <point x="390" y="497" type="line"/>
      <point x="390" y="540" type="line"/>
    </contour>
    <contour>
      <point x="389" y="627" type="line"/>
      <point x="470" y="627" type="line"/>
      <point x="470" y="704" type="line"/>
      <point x="450" y="732"/>
      <point x="405" y="759"/>
      <point x="332" y="759" type="curve" smooth="yes"/>
      <point x="223" y="759"/>
      <point x="145" y="694"/>
      <point x="145" y="577" type="curve" smooth="yes"/>
      <point x="145" y="0" type="line"/>
      <point x="234" y="0" type="line"/>
      <point x="234" y="577" type="line" smooth="yes"/>
      <point x="234" y="673"/>
      <point x="265" y="715"/>
      <point x="332" y="715" type="curve" smooth="yes"/>
      <point x="373" y="715"/>
      <point x="402" y="700"/>
      <point x="420" y="667" type="curve"/>
      <point x="437" y="683"/>
      <point x="418" y="711"/>
      <point x="389" y="710" type="curve"/>
    </contour>
  </outline>
</glyph>
<glyph name="i" format="1">
  <advance width="330"/>
  <unicode hex="0069"/>
  <outline>
    <contour>
      <point x="170" y="646" type="curve" smooth="yes"/>
      <point x="205" y="646"/>
      <point x="231" y="669"/>
      <point x="231" y="707" type="curve" smooth="yes"/>
      <point x="231" y="744"/>
      <point x="205" y="767"/>
      <point x="170" y="767" type="curve" smooth="yes"/>
      <point x="135" y="767"/>
      <point x="109" y="744"/>
      <point x="109" y="707" type="curve" smooth="yes"/>
      <point x="109" y="669"/>
      <point x="135" y="646"/>
    </contour>
    <contour>
      <point x="129" y="0" type="line"/>
      <point x="218" y="0" type="line"/>
      <point x="218" y="540" type="line"/>
      <point x="43" y="540" type="line"/>
      <point x="43" y="505" type="line"/>
      <point x="54" y="503" type="line" smooth="yes"/>
      <point x="105" y="494"/>
      <point x="129" y="487"/>
      <point x="129" y="458" type="curve" smooth="yes"/>
    </contour>
    <contour>
      <point x="44" y="0" type="line"/>
      <point x="302" y="0" type="line"/>
      <point x="302" y="33" type="line"/>
      <point x="301" y="33" type="line"/>
      <point x="253" y="33"/>
      <point x="218" y="40"/>
      <point x="218" y="69" type="curve"/>
      <point x="129" y="69" type="line"/>
      <point x="129" y="40"/>
      <point x="93" y="33"/>
      <point x="45" y="33" type="curve"/>
      <point x="44" y="33" type="line"/>
    </contour>
  </outline>
</glyph>
<glyph name="k" format="1">
  <advance width="636"/>
  <unicode hex="006B"/>
  <outline>
    <contour>
      <point x="129" y="0" type="line"/>
      <point x="218" y="0" type="line"/>
      <point x="218" y="750" type="line"/>
      <point x="43" y="750" type="line"/>
      <point x="43" y="715" type="line"/>
      <point x="54" y="713" type="line" smooth="yes"/>
      <point x="105" y="704"/>
      <point x="129" y="697"/>
      <point x="129" y="668" type="curve" smooth="yes"/>
    </contour>
    <contour>
      <point x="44" y="0" type="line"/>
      <point x="292" y="0" type="line"/>
      <point x="292" y="33" type="line"/>
      <point x="292" y="33" type="line"/>
      <point x="259" y="33"/>
      <point x="218" y="38"/>
      <point x="218" y="58" type="curve"/>
      <point x="129" y="69" type="line"/>
      <point x="129" y="40"/>
      <point x="93" y="33"/>
      <point x="45" y="33" type="curve"/>
      <point x="44" y="33" type="line"/>
    </contour>
    <contour>
      <point x="310" y="324" type="line"/>
      <point x="302" y="288" type="line"/>
      <point x="535" y="511" type="line"/>
      <point x="524" y="533" type="line"/>
      <point x="493" y="533" type="line"/>
      <point x="236" y="289" type="line"/>
      <point x="236" y="284" type="line"/>
      <point x="488" y="0" type="line"/>
      <point x="563" y="0" type="line"/>
      <point x="571" y="33" type="line"/>
    </contour>
    <contour>
      <point x="622" y="0" type="line"/>
      <point x="622" y="33" type="line"/>
      <point x="621" y="33" type="line"/>
      <point x="595" y="33"/>
      <point x="563" y="42"/>
      <point x="537" y="70" type="curve"/>
      <point x="448" y="44" type="line"/>
      <point x="448" y="37"/>
      <point x="399" y="33"/>
      <point x="379" y="33" type="curve"/>
      <point x="379" y="33" type="line"/>
      <point x="379" y="0" type="line"/>
    </contour>
    <contour>
      <point x="366" y="540" type="line"/>
      <point x="366" y="507" type="line"/>
      <point x="366" y="507" type="line"/>
      <point x="397" y="507"/>
      <point x="443" y="502"/>
      <point x="443" y="486" type="curve"/>
      <point x="477" y="456" type="line"/>
      <point x="514" y="491"/>
      <point x="554" y="507"/>
      <point x="587" y="507" type="curve"/>
      <point x="588" y="507" type="line"/>
      <point x="588" y="540" type="line"/>
    </contour>
  </outline>
</glyph>
<glyph name="m" format="1">
  <advance width="949"/>
  <unicode hex="006D"/>
  <outline>
    <contour>
      <point x="362" y="500" type="curve" smooth="yes"/>
      <point x="419" y="500"/>
      <point x="437" y="465"/>
      <point x="437" y="382" type="curve" smooth="yes"/>
      <point x="437" y="0" type="line"/>
      <point x="526" y="0" type="line"/>
      <point x="526" y="389" type="line"/>
      <point x="526" y="500"/>
      <point x="466" y="550"/>
      <point x="377" y="550" type="curve" smooth="yes"/>
      <point x="284" y="550"/>
      <point x="233" y="492"/>
      <point x="172" y="390" type="curve"/>
      <point x="194" y="365" type="line"/>
      <point x="243" y="451"/>
      <point x="294" y="500"/>
    </contour>
    <contour>
      <point x="671" y="500" type="curve" smooth="yes"/>
      <point x="728" y="500"/>
      <point x="746" y="465"/>
      <point x="746" y="382" type="curve" smooth="yes"/>
      <point x="746" y="0" type="line"/>
      <point x="835" y="0" type="line"/>
      <point x="835" y="389" type="line"/>
      <point x="835" y="500"/>
      <point x="774" y="550"/>
      <point x="686" y="550" type="curve" smooth="yes"/>
      <point x="593" y="550"/>
      <point x="542" y="492"/>
      <point x="481" y="390" type="curve"/>
      <point x="503" y="365" type="line"/>
      <point x="552" y="451"/>
      <point x="603" y="500"/>
    </contour>
    <contour>
      <point x="44" y="0" type="line"/>
      <point x="290" y="0" type="line"/>
      <point x="290" y="33" type="line"/>
      <point x="290" y="33" type="line"/>
      <point x="262" y="33"/>
      <point x="218" y="36"/>
      <point x="218" y="43" type="curve"/>
      <point x="129" y="69" type="line"/>
      <point x="129" y="40"/>
      <point x="94" y="33"/>
      <point x="46" y="33" type="curve"/>
      <point x="44" y="33" type="line"/>
    </contour>
    <contour>
      <point x="44" y="540" type="line"/>
      <point x="44" y="504" type="line"/>
      <point x="55" y="502" type="line" smooth="yes"/>
      <point x="105" y="493"/>
      <point x="129" y="486"/>
      <point x="129" y="457" type="curve" smooth="yes"/>
      <point x="129" y="0" type="line"/>
      <point x="218" y="0" type="line"/>
      <point x="218" y="426" type="line"/>
      <point x="210" y="438" type="line"/>
      <point x="210" y="540" type="line"/>
    </contour>
    <contour>
      <point x="365" y="0" type="line"/>
      <point x="599" y="0" type="line"/>
      <point x="599" y="33" type="line"/>
      <point x="598" y="33" type="line"/>
      <point x="570" y="33"/>
      <point x="526" y="36"/>
      <point x="526" y="43" type="curve"/>
      <point x="437" y="43" type="line"/>
      <point x="437" y="36"/>
      <point x="393" y="33"/>
      <point x="365" y="33" type="curve"/>
      <point x="365" y="33" type="line"/>
    </contour>
    <contour>
      <point x="921" y="0" type="line"/>
      <point x="921" y="33" type="line"/>
      <point x="918" y="33" type="line"/>
      <point x="870" y="33"/>
      <point x="835" y="40"/>
      <point x="835" y="69" type="curve"/>
      <point x="746" y="43" type="line"/>
      <point x="746" y="38"/>
      <point x="702" y="33"/>
      <point x="674" y="33" type="curve"/>
      <point x="674" y="33" type="line"/>
      <point x="674" y="0" type="line"/>
    </contour>
  </outline>
</glyph>
<glyph name="n" format="1">
  <advance width="671"/>
  <unicode hex="006E"/>
  <outline>
    <contour>
      <point x="43" y="0" type="line"/>
      <point x="294" y="0" type="line"/>
      <point x="294" y="33" type="line"/>
      <point x="294" y="33" type="line"/>
      <point x="266" y="33"/>
      <point x="217" y="36"/>
      <point x="217" y="43" type="curve"/>
      <point x="128" y="69" type="line"/>
      <point x="128" y="40"/>
      <point x="92" y="33"/>
      <point x="44" y="33" type="curve"/>
      <point x="43" y="33" type="line"/>
    </contour>
    <contour>
      <point x="392" y="0" type="line"/>
      <point x="642" y="0" type="line"/>
      <point x="642" y="33" type="line"/>
      <point x="641" y="33" type="line"/>
      <point x="594" y="33"/>
      <point x="558" y="40"/>
      <point x="558" y="69" type="curve"/>
      <point x="469" y="43" type="line"/>
      <point x="469" y="36"/>
      <point x="420" y="33"/>
      <point x="392" y="33" type="curve"/>
      <point x="392" y="33" type="line"/>
    </contour>
    <contour>
      <point x="378" y="500" type="curve" smooth="yes"/>
      <point x="447" y="500"/>
      <point x="469" y="466"/>
      <point x="469" y="383" type="curve" smooth="yes"/>
      <point x="469" y="0" type="line"/>
      <point x="558" y="0" type="line"/>
      <point x="558" y="389" type="line" smooth="yes"/>
      <point x="558" y="500"/>
      <point x="491" y="550"/>
      <point x="393" y="550" type="curve" smooth="yes"/>
      <point x="293" y="550"/>
      <point x="234" y="494"/>
      <point x="172" y="390" type="curve"/>
      <point x="194" y="366" type="line"/>
      <point x="243" y="453"/>
      <point x="303" y="500"/>
    </contour>
    <contour>
      <point x="43" y="540" type="line"/>
      <point x="43" y="505" type="line"/>
      <point x="54" y="503" type="line" smooth="yes"/>
      <point x="104" y="494"/>
      <point x="128" y="487"/>
      <point x="128" y="458" type="curve" smooth="yes"/>
      <point x="128" y="0" type="line"/>
      <point x="217" y="0" type="line"/>
      <point x="217" y="425" type="line"/>
      <point x="209" y="435" type="line"/>
      <point x="209" y="540" type="line"/>
    </contour>
  </outline>
</glyph>
<glyph name="p" format="1">
  <advance width="689"/>
  <unicode hex="0070"/>
  <outline>
    <contour>
      <point x="40" y="540" type="line"/>
      <point x="40" y="505" type="line"/>
      <point x="51" y="503" type="line" smooth="yes"/>
      <point x="100" y="494"/>
      <point x="125" y="487"/>
      <point x="125" y="458" type="curve" smooth="yes"/>
      <point x="125" y="-209" type="line"/>
      <point x="214" y="-209" type="line"/>
      <point x="214" y="413" type="line"/>
      <point x="206" y="410" type="line"/>
      <point x="206" y="540" type="line"/>
    </contour>
    <contour>
      <point x="544" y="272" type="curve" smooth="yes"/>
      <point x="544" y="129"/>
      <point x="487" y="36"/>
      <point x="385" y="36" type="curve" smooth="yes"/>
      <point x="301" y="36"/>
      <point x="237" y="82"/>
      <point x="190" y="181" type="curve"/>
      <point x="157" y="167" type="line"/>
      <point x="222" y="41"/>
      <point x="284" y="-11"/>
      <point x="388" y="-11" type="curve" smooth="yes"/>
      <point x="538" y="-11"/>
      <point x="638" y="104"/>
      <point x="638" y="272" type="curve" smooth="yes"/>
      <point x="638" y="439"/>
      <point x="539" y="550"/>
      <point x="393" y="550" type="curve" smooth="yes"/>
      <point x="287" y="550"/>
      <point x="227" y="490"/>
      <point x="160" y="363" type="curve"/>
      <point x="192" y="346" type="line"/>
      <point x="238" y="447"/>
      <point x="302" y="503"/>
      <point x="388" y="503" type="curve" smooth="yes"/>
      <point x="488" y="503"/>
      <point x="544" y="412"/>
    </contour>
    <contour>
      <point x="40" y="-223" type="line"/>
      <point x="309" y="-223" type="line"/>
      <point x="309" y="-190" type="line"/>
      <point x="289" y="-190" type="line" smooth="yes"/>
      <point x="262" y="-190"/>
      <point x="214" y="-187"/>
      <point x="214" y="-180" type="curve"/>
      <point x="125" y="-154" type="line"/>
      <point x="125" y="-183"/>
      <point x="89" y="-190"/>
      <point x="41" y="-190" type="curve"/>
      <point x="40" y="-190" type="line"/>
    </contour>
  </outline>
</glyph>
<glyph name="q" format="1">
  <advance width="668"/>
  <unicode hex="0071"/>
  <outline>
    <contour>
      <point x="564" y="545" type="line"/>
      <point x="518" y="545" type="line"/>
      <point x="482" y="438" type="line"/>
      <point x="475" y="423" type="line"/>
      <point x="475" y="-210" type="line"/>
      <point x="564" y="-210" type="line"/>
    </contour>
    <contour>
      <point x="145" y="266" type="curve" smooth="yes"/>
      <point x="145" y="410"/>
      <point x="202" y="503"/>
      <point x="304" y="503" type="curve" smooth="yes"/>
      <point x="389" y="503"/>
      <point x="453" y="458"/>
      <point x="499" y="358" type="curve"/>
      <point x="532" y="372" type="line"/>
      <point x="469" y="498"/>
      <point x="406" y="550"/>
      <point x="301" y="550" type="curve" smooth="yes"/>
      <point x="152" y="550"/>
      <point x="51" y="435"/>
      <point x="51" y="266" type="curve" smooth="yes"/>
      <point x="51" y="100"/>
      <point x="151" y="-11"/>
      <point x="297" y="-11" type="curve" smooth="yes"/>
      <point x="403" y="-11"/>
      <point x="463" y="49"/>
      <point x="530" y="176" type="curve"/>
      <point x="497" y="193" type="line"/>
      <point x="452" y="92"/>
      <point x="388" y="36"/>
      <point x="301" y="36" type="curve" smooth="yes"/>
      <point x="202" y="36"/>
      <point x="145" y="127"/>
    </contour>
    <contour>
      <point x="649" y="-223" type="line"/>
      <point x="649" y="-190" type="line"/>
      <point x="648" y="-190" type="line"/>
      <point x="600" y="-190"/>
      <point x="564" y="-183"/>
      <point x="564" y="-154" type="curve"/>
      <point x="475" y="-180" type="line"/>
      <point x="475" y="-187"/>
      <point x="427" y="-190"/>
      <point x="400" y="-190" type="curve" smooth="yes"/>
      <point x="378" y="-190" type="line"/>
      <point x="378" y="-223" type="line"/>
    </contour>
  </outline>
</glyph>
<glyph name="s" format="1">
  <advance width="505"/>
  <unicode hex="0073"/>
  <outline>
    <contour>
      <point x="380" y="133" type="curve"/>
      <point x="380" y="69"/>
      <point x="336" y="33"/>
      <point x="255" y="33" type="curve" smooth="yes"/>
      <point x="189" y="33"/>
      <point x="134" y="51"/>
      <point x="108" y="106" type="curve"/>
      <point x="92" y="66"/>
      <point x="97" y="52"/>
      <point x="129" y="38" type="curve"/>
      <point x="129" y="159" type="line"/>
      <point x="44" y="159" type="line"/>
      <point x="44" y="72" type="line"/>
      <point x="83" y="21"/>
      <point x="161" y="-11"/>
      <point x="258" y="-11" type="curve" smooth="yes"/>
      <point x="384" y="-11"/>
      <point x="461" y="59"/>
      <point x="461" y="148" type="curve" smooth="yes"/>
      <point x="461" y="352"/>
      <point x="143" y="266"/>
      <point x="143" y="412" type="curve" smooth="yes"/>
      <point x="143" y="466"/>
      <point x="180" y="506"/>
      <point x="253" y="506" type="curve" smooth="yes"/>
      <point x="306" y="506"/>
      <point x="353" y="487"/>
      <point x="374" y="440" type="curve"/>
      <point x="380" y="471"/>
      <point x="372" y="499"/>
      <point x="347" y="496" type="curve"/>
      <point x="347" y="400" type="line"/>
      <point x="430" y="400" type="line"/>
      <point x="430" y="400"/>
      <point x="430" y="477"/>
      <point x="430" y="478" type="curve"/>
      <point x="404" y="519"/>
      <point x="337" y="550"/>
      <point x="251" y="550" type="curve" smooth="yes"/>
      <point x="137" y="550"/>
      <point x="65" y="487"/>
      <point x="65" y="396" type="curve" smooth="yes"/>
      <point x="65" y="185"/>
      <point x="380" y="272"/>
    </contour>
  </outline>
</glyph>
<glyph name="t" format="1">
  <advance width="392"/>
  <unicode hex="0074"/>
  <outline>
    <contour>
      <point x="21" y="497" type="line"/>
      <point x="21" y="535" type="line"/>
      <point x="25" y="535" type="line" smooth="yes"/>
      <point x="81" y="535"/>
      <point x="129" y="547"/>
      <point x="129" y="611" type="curve"/>
      <point x="163" y="540" type="line"/>
      <point x="344" y="540" type="line"/>
      <point x="344" y="497" type="line"/>
    </contour>
    <contour>
      <point x="198" y="157" type="line" smooth="yes"/>
      <point x="198" y="68"/>
      <point x="232" y="36"/>
      <point x="287" y="36" type="curve" smooth="yes"/>
      <point x="313" y="36"/>
      <point x="335" y="41"/>
      <point x="358" y="48" type="curve"/>
      <point x="358" y="4" type="line"/>
      <point x="338" y="-4"/>
      <point x="309" y="-11"/>
      <point x="278" y="-11" type="curve" smooth="yes"/>
      <point x="193" y="-11"/>
      <point x="109" y="23"/>
      <point x="109" y="156" type="curve" smooth="yes"/>
      <point x="109" y="534" type="line"/>
      <point x="129" y="539" type="line"/>
      <point x="129" y="674" type="line"/>
      <point x="198" y="674" type="line"/>
    </contour>
  </outline>
</glyph>
<glyph name="E.alt" format="1">
  <advance width="639"/>
  <outline>
    <contour>
      <point x="141" y="0" type="line"/>
      <point x="234" y="0" type="line"/>
      <point x="234" y="710" type="line"/>
      <point x="141" y="710" type="line"/>
    </contour>
    <contour>
      <point x="204" y="385" type="line"/>
      <point x="204" y="341" type="line"/>
      <point x="426" y="341" type="line"/>
      <point x="426" y="385" type="line"/>
    </contour>
    <contour>
      <point x="50" y="710" type="line"/>
      <point x="50" y="676" type="line"/>
      <point x="58" y="676" type="line" smooth="yes"/>
      <point x="103" y="676"/>
      <point x="141" y="669"/>
      <point x="141" y="640" type="curve"/>
      <point x="201" y="666" type="line"/>
      <point x="374" y="666" type="line" smooth="yes"/>
      <point x="460" y="666"/>
      <point x="494" y="655"/>
      <point x="501" y="616" type="curve" smooth="yes"/>
      <point x="515" y="525" type="line"/>
      <point x="554" y="525" type="line"/>
      <point x="554" y="710" type="line"/>
    </contour>
    <contour>
      <point x="50" y="0" type="line"/>
      <point x="580" y="0" type="line"/>
      <point x="580" y="210" type="line"/>
      <point x="541" y="210" type="line"/>
      <point x="526" y="96" type="line" smooth="yes"/>
      <point x="520" y="55"/>
      <point x="486" y="44"/>
      <point x="400" y="44" type="curve" smooth="yes"/>
      <point x="208" y="44" type="line"/>
      <point x="141" y="70" type="line"/>
      <point x="141" y="41"/>
      <point x="104" y="34"/>
      <point x="58" y="34" type="curve" smooth="yes"/>
      <point x="50" y="34" type="line"/>
    </contour>
    <contour>
      <point x="449" y="270" type="line"/>
      <point x="449" y="457" type="line"/>
      <point x="414" y="457" type="line"/>
      <point x="414" y="451" type="line"/>
      <point x="414" y="416"/>
      <point x="404" y="385"/>
      <point x="375" y="385" type="curve"/>
      <point x="375" y="341" type="line"/>
      <point x="404" y="341"/>
      <point x="414" y="310"/>
      <point x="414" y="276" type="curve"/>
      <point x="414" y="270" type="line"/>
    </contour>
  </outline>
</glyph>
<glyph name="G.alt" format="1">
  <advance width="799"/>
  <outline>
    <contour>
      <point x="149" y="355" type="curve" smooth="yes"/>
      <point x="149" y="549"/>
      <point x="263" y="676"/>
      <point x="426" y="676" type="curve" smooth="yes"/>
      <point x="535" y="676"/>
      <point x="615" y="626"/>
      <point x="641" y="566" type="curve"/>
      <point x="649" y="603"/>
      <point x="627" y="631"/>
      <point x="598" y="630" type="curve"/>
      <point x="598" y="512" type="line"/>
      <point x="695" y="512" type="line"/>
      <point x="695" y="608" type="line"/>
      <point x="664" y="659"/>
      <point x="565" y="720"/>
      <point x="426" y="720" type="curve" smooth="yes"/>
      <point x="211" y="720"/>
      <point x="49" y="569"/>
      <point x="49" y="355" type="curve" smooth="yes"/>
      <point x="49" y="137"/>
      <point x="197" y="-10"/>
      <point x="421" y="-10" type="curve" smooth="yes"/>
      <point x="546" y="-10"/>
      <point x="665" y="59"/>
      <point x="705" y="121" type="curve"/>
      <point x="705" y="304" type="line"/>
      <point x="615" y="312" type="line"/>
      <point x="615" y="115" type="line"/>
      <point x="592" y="91"/>
      <point x="525" y="36"/>
      <point x="422" y="36" type="curve" smooth="yes"/>
      <point x="250" y="36"/>
      <point x="149" y="159"/>
    </contour>
    <contour>
      <point x="705" y="271" type="line"/>
      <point x="705" y="300"/>
      <point x="739" y="307"/>
      <point x="773" y="307" type="curve" smooth="yes"/>
      <point x="778" y="307" type="line"/>
      <point x="778" y="341" type="line"/>
      <point x="519" y="341" type="line"/>
      <point x="519" y="307" type="line"/>
      <point x="527" y="307" type="line" smooth="yes"/>
      <point x="577" y="307"/>
      <point x="615" y="300"/>
      <point x="615" y="271" type="curve"/>
    </contour>
  </outline>
</glyph>
<glyph name="G.srf" format="1">
  <advance width="800"/>
  <outline>
    <contour>
      <point x="519" y="349" type="line"/>
      <point x="519" y="315" type="line"/>
      <point x="527" y="315" type="line" smooth="yes"/>
      <point x="577" y="315"/>
      <point x="615" y="308"/>
      <point x="615" y="279" type="curve"/>
      <point x="705" y="279" type="line"/>
      <point x="705" y="308"/>
      <point x="739" y="315"/>
      <point x="771" y="315" type="curve" smooth="yes"/>
      <point x="776" y="315" type="line"/>
      <point x="776" y="349" type="line"/>
    </contour>
    <contour>
      <point x="413" y="720" type="curve" smooth="yes"/>
      <point x="210" y="720"/>
      <point x="49" y="569"/>
      <point x="49" y="355" type="curve" smooth="yes"/>
      <point x="49" y="137"/>
      <point x="197" y="-10"/>
      <point x="421" y="-10" type="curve" smooth="yes"/>
      <point x="546" y="-10"/>
      <point x="669" y="59"/>
      <point x="705" y="117" type="curve"/>
      <point x="705" y="312" type="line"/>
      <point x="615" y="320" type="line"/>
      <point x="615" y="106" type="line"/>
      <point x="591" y="82"/>
      <point x="525" y="36"/>
      <point x="422" y="36" type="curve" smooth="yes"/>
      <point x="250" y="36"/>
      <point x="149" y="159"/>
      <point x="149" y="355" type="curve" smooth="yes"/>
      <point x="149" y="548"/>
      <point x="262" y="674"/>
      <point x="413" y="674" type="curve" smooth="yes"/>
      <point x="535" y="674"/>
      <point x="615" y="602"/>
      <point x="643" y="503" type="curve"/>
      <point x="700" y="503" type="line"/>
      <point x="700" y="710" type="line"/>
      <point x="653" y="710" type="line"/>
      <point x="641" y="569" type="line"/>
      <point x="642" y="567"/>
      <point x="664" y="568"/>
      <point x="668" y="565" type="curve"/>
      <point x="629" y="661"/>
      <point x="532" y="720"/>
    </contour>
  </outline>
</glyph>
<glyph name="K.alt" format="1">
  <advance width="736"/>
  <outline>
    <contour>
      <point x="565" y="0" type="line"/>
      <point x="658" y="0" type="line"/>
      <point x="663" y="17" type="line"/>
      <point x="365" y="412" type="line"/>
      <point x="354" y="370" type="line"/>
      <point x="618" y="689" type="line"/>
      <point x="619" y="710" type="line"/>
      <point x="579" y="710" type="line"/>
      <point x="295" y="367" type="line"/>
      <point x="302" y="354" type="line"/>
    </contour>
    <contour>
      <point x="141" y="0" type="line"/>
      <point x="234" y="0" type="line"/>
      <point x="234" y="710" type="line"/>
      <point x="141" y="710" type="line"/>
    </contour>
    <contour>
      <point x="50" y="710" type="line"/>
      <point x="50" y="676" type="line"/>
      <point x="58" y="676" type="line" smooth="yes"/>
      <point x="103" y="676"/>
      <point x="141" y="669"/>
      <point x="141" y="640" type="curve"/>
      <point x="234" y="666" type="line"/>
      <point x="234" y="673"/>
      <point x="279" y="676"/>
      <point x="315" y="676" type="curve" smooth="yes"/>
      <point x="324" y="676" type="line"/>
      <point x="324" y="710" type="line"/>
    </contour>
    <contour>
      <point x="675" y="710" type="line"/>
      <point x="453" y="710" type="line"/>
      <point x="453" y="676" type="line"/>
      <point x="465" y="676" type="line" smooth="yes"/>
      <point x="500" y="676"/>
      <point x="539" y="670"/>
      <point x="539" y="662" type="curve"/>
      <point x="573" y="634" type="line"/>
      <point x="597" y="664"/>
      <point x="622" y="676"/>
      <point x="664" y="676" type="curve" smooth="yes"/>
      <point x="675" y="676" type="line"/>
    </contour>
    <contour>
      <point x="50" y="0" type="line"/>
      <point x="324" y="0" type="line"/>
      <point x="324" y="34" type="line"/>
      <point x="315" y="34" type="line" smooth="yes"/>
      <point x="279" y="34"/>
      <point x="234" y="37"/>
      <point x="234" y="44" type="curve"/>
      <point x="141" y="70" type="line"/>
      <point x="141" y="41"/>
      <point x="104" y="34"/>
      <point x="58" y="34" type="curve" smooth="yes"/>
      <point x="50" y="34" type="line"/>
    </contour>
    <contour>
      <point x="724" y="0" type="line"/>
      <point x="724" y="34" type="line"/>
      <point x="715" y="34" type="line" smooth="yes"/>
      <point x="665" y="34"/>
      <point x="646" y="39"/>
      <point x="623" y="70" type="curve"/>
      <point x="532" y="44" type="line"/>
      <point x="532" y="37"/>
      <point x="489" y="34"/>
      <point x="454" y="34" type="curve" smooth="yes"/>
      <point x="443" y="34" type="line"/>
      <point x="443" y="0" type="line"/>
    </contour>
    <contour>
      <point x="211" y="394" type="line"/>
      <point x="211" y="347" type="line"/>
      <point x="343" y="347" type="line"/>
      <point x="342" y="394" type="line"/>
    </contour>
  </outline>
</glyph>
<glyph name="Q.alt2" format="1">
  <advance width="797"/>
  <outline>
    <contour>
      <point x="398" y="-10" type="curve" smooth="yes"/>
      <point x="593" y="-10"/>
      <point x="748" y="139"/>
      <point x="748" y="355" type="curve" smooth="yes"/>
      <point x="748" y="572"/>
      <point x="593" y="720"/>
      <point x="398" y="720" type="curve" smooth="yes"/>
      <point x="203" y="720"/>
      <point x="49" y="572"/>
      <point x="49" y="355" type="curve" smooth="yes"/>
      <point x="49" y="139"/>
      <point x="203" y="-10"/>
    </contour>
    <contour>
      <point x="398" y="35" type="curve" smooth="yes"/>
      <point x="253" y="35"/>
      <point x="148" y="159"/>
      <point x="148" y="355" type="curve" smooth="yes"/>
      <point x="148" y="551"/>
      <point x="253" y="675"/>
      <point x="398" y="675" type="curve" smooth="yes"/>
      <point x="544" y="675"/>
      <point x="649" y="551"/>
      <point x="649" y="355" type="curve" smooth="yes"/>
      <point x="649" y="159"/>
      <point x="544" y="35"/>
    </contour>
    <contour>
      <point x="228" y="-158" type="curve"/>
      <point x="264" y="-175" type="line"/>
      <point x="288" y="-122"/>
      <point x="326" y="-91"/>
      <point x="386" y="-91" type="curve" smooth="yes"/>
      <point x="460" y="-91"/>
      <point x="583" y="-136"/>
      <point x="711" y="-214" type="curve"/>
      <point x="751" y="-126" type="line"/>
      <point x="632" y="-70"/>
      <point x="508" y="-41"/>
      <point x="421" y="-41" type="curve" smooth="yes"/>
      <point x="324" y="-41"/>
      <point x="264" y="-81"/>
    </contour>
  </outline>
</glyph>
<glyph name="S.srf" format="1">
  <advance width="627"/>
  <outline>
    <contour>
      <point x="327" y="35" type="curve" smooth="yes"/>
      <point x="220" y="35"/>
      <point x="131" y="97"/>
      <point x="105" y="219" type="curve"/>
      <point x="48" y="219" type="line"/>
      <point x="48" y="0" type="line"/>
      <point x="97" y="0" type="line"/>
      <point x="108" y="145" type="line"/>
      <point x="107" y="147"/>
      <point x="84" y="153"/>
      <point x="80" y="155" type="curve"/>
      <point x="115" y="40"/>
      <point x="224" y="-10"/>
      <point x="333" y="-10" type="curve" smooth="yes"/>
      <point x="463" y="-10"/>
      <point x="574" y="66"/>
      <point x="574" y="196" type="curve" smooth="yes"/>
      <point x="574" y="336"/>
      <point x="457" y="374"/>
      <point x="344" y="406" type="curve" smooth="yes"/>
      <point x="240" y="435"/>
      <point x="146" y="453"/>
      <point x="146" y="547" type="curve" smooth="yes"/>
      <point x="146" y="623"/>
      <point x="198" y="675"/>
      <point x="295" y="675" type="curve" smooth="yes"/>
      <point x="391" y="675"/>
      <point x="465" y="619"/>
      <point x="482" y="526" type="curve"/>
      <point x="536" y="526" type="line"/>
      <point x="536" y="710" type="line"/>
      <point x="489" y="710" type="line"/>
      <point x="478" y="589" type="line"/>
      <point x="482" y="587"/>
      <point x="508" y="575"/>
      <point x="511" y="579" type="curve"/>
      <point x="468" y="684"/>
      <point x="380" y="720"/>
      <point x="286" y="720" type="curve" smooth="yes"/>
      <point x="160" y="720"/>
      <point x="65" y="644"/>
      <point x="65" y="533" type="curve"/>
      <point x="65" y="395"/>
      <point x="178" y="361"/>
      <point x="288" y="330" type="curve" smooth="yes"/>
      <point x="391" y="301"/>
      <point x="487" y="277"/>
      <point x="487" y="175" type="curve" smooth="yes"/>
      <point x="487" y="76"/>
      <point x="423" y="35"/>
    </contour>
  </outline>
</glyph>
<glyph name="W.alt" format="1">
  <advance width="1052"/>
  <outline>
    <contour>
      <point x="261" y="0" type="line"/>
      <point x="327" y="0" type="line"/>
      <point x="332" y="43" type="line"/>
      <point x="152" y="710" type="line"/>
      <point x="62" y="710" type="line"/>
    </contour>
    <contour>
      <point x="12" y="710" type="line"/>
      <point x="12" y="676" type="line"/>
      <point x="17" y="676" type="line" smooth="yes"/>
      <point x="48" y="676"/>
      <point x="70" y="673"/>
      <point x="81" y="642" type="curve"/>
      <point x="164" y="666" type="line"/>
      <point x="164" y="673"/>
      <point x="208" y="676"/>
      <point x="248" y="676" type="curve" smooth="yes"/>
      <point x="267" y="676" type="line"/>
      <point x="267" y="710" type="line"/>
    </contour>
    <contour>
      <point x="985" y="705" type="line"/>
      <point x="939" y="710" type="line"/>
      <point x="748" y="0" type="line"/>
      <point x="793" y="-5" type="line"/>
    </contour>
    <contour>
      <point x="1040" y="710" type="line"/>
      <point x="820" y="710" type="line"/>
      <point x="820" y="676" type="line"/>
      <point x="845" y="676" type="line" smooth="yes"/>
      <point x="896" y="676"/>
      <point x="924" y="666"/>
      <point x="924" y="655" type="curve"/>
      <point x="961" y="618" type="line"/>
      <point x="973" y="663"/>
      <point x="1001" y="676"/>
      <point x="1034" y="676" type="curve" smooth="yes"/>
      <point x="1040" y="676" type="line"/>
    </contour>
    <contour>
      <point x="505" y="710" type="line"/>
      <point x="306" y="0" type="line"/>
      <point x="352" y="0" type="line"/>
      <point x="535" y="661" type="line"/>
      <point x="517" y="657" type="line"/>
      <point x="703" y="0" type="line"/>
      <point x="769" y="0" type="line"/>
      <point x="774" y="43" type="line"/>
      <point x="585" y="710" type="line"/>
    </contour>
    <contour>
      <point x="689" y="710" type="line"/>
      <point x="402" y="710" type="line"/>
      <point x="402" y="676" type="line"/>
      <point x="421" y="676" type="line" smooth="yes"/>
      <point x="455" y="676"/>
      <point x="493" y="673"/>
      <point x="493" y="666" type="curve"/>
      <point x="598" y="666" type="line"/>
      <point x="598" y="673"/>
      <point x="635" y="676"/>
      <point x="669" y="676" type="curve" smooth="yes"/>
      <point x="689" y="676" type="line"/>
    </contour>
  </outline>
</glyph>
<glyph name="four.old" format="1">
  <advance width="607"/>
  <outline>
    <contour>
      <point x="248" y="-138" type="line"/>
      <point x="248" y="-182" type="line"/>
      <point x="578" y="-182" type="line"/>
      <point x="578" y="-138" type="line"/>
      <point x="459" y="-138" type="line"/>
      <point x="459" y="-138" type="line"/>
      <point x="367" y="-138" type="line"/>
      <point x="367" y="-138" type="line"/>
    </contour>
    <contour>
      <point x="367" y="528" type="line"/>
      <point x="367" y="-182" type="line"/>
      <point x="459" y="-182" type="line"/>
      <point x="459" y="528" type="line"/>
    </contour>
    <contour>
      <point x="28" y="1" type="line"/>
      <point x="588" y="1" type="line"/>
      <point x="588" y="45" type="line"/>
      <point x="54" y="45" type="line"/>
      <point x="59" y="16" type="line"/>
      <point x="395" y="495" type="line"/>
      <point x="425" y="528" type="line"/>
      <point x="364" y="528" type="line"/>
      <point x="28" y="46" type="line"/>
    </contour>
  </outline>
</glyph>
<glyph name="k.alt" format="1">
  <advance width="660"/>
  <outline>
    <contour>
      <point x="497" y="0" type="line"/>
      <point x="573" y="0" type="line"/>
      <point x="581" y="33" type="line"/>
      <point x="319" y="324" type="line"/>
      <point x="311" y="288" type="line"/>
      <point x="545" y="511" type="line"/>
      <point x="535" y="533" type="line"/>
      <point x="504" y="533" type="line"/>
      <point x="245" y="289" type="line"/>
      <point x="245" y="284" type="line"/>
    </contour>
    <contour>
      <point x="44" y="0" type="line"/>
      <point x="298" y="0" type="line"/>
      <point x="298" y="33" type="line"/>
      <point x="297" y="33" type="line"/>
      <point x="259" y="33"/>
      <point x="218" y="38"/>
      <point x="218" y="58" type="curve"/>
      <point x="129" y="69" type="line"/>
      <point x="129" y="40"/>
      <point x="93" y="33"/>
      <point x="45" y="33" type="curve"/>
      <point x="44" y="33" type="line"/>
    </contour>
    <contour>
      <point x="43" y="750" type="line"/>
      <point x="43" y="715" type="line"/>
      <point x="54" y="713" type="line" smooth="yes"/>
      <point x="105" y="704"/>
      <point x="129" y="697"/>
      <point x="129" y="668" type="curve" smooth="yes"/>
      <point x="129" y="0" type="line"/>
      <point x="218" y="0" type="line"/>
      <point x="218" y="750" type="line"/>
    </contour>
    <contour>
      <point x="380" y="0" type="line"/>
      <point x="643" y="0" type="line"/>
      <point x="643" y="33" type="line"/>
      <point x="642" y="33" type="line"/>
      <point x="605" y="33"/>
      <point x="574" y="42"/>
      <point x="548" y="70" type="curve"/>
      <point x="458" y="44" type="line"/>
      <point x="458" y="37"/>
      <point x="408" y="33"/>
      <point x="380" y="33" type="curve"/>
      <point x="380" y="33" type="line"/>
    </contour>
    <contour>
      <point x="372" y="540" type="line"/>
      <point x="372" y="507" type="line"/>
      <point x="372" y="507" type="line"/>
      <point x="409" y="507"/>
      <point x="454" y="502"/>
      <point x="454" y="486" type="curve"/>
      <point x="488" y="456" type="line"/>
      <point x="526" y="491"/>
      <point x="565" y="507"/>
      <point x="604" y="507" type="curve"/>
      <point x="605" y="507" type="line"/>
      <point x="605" y="540" type="line"/>
    </contour>
    <contour>
      <point x="319" y="263" type="line"/>
      <point x="319" y="309" type="line"/>
      <point x="163" y="309" type="line"/>
      <point x="163" y="263" type="line"/>
    </contour>
  </outline>
</glyph>
<glyph name="one.alt" format="1">
  <advance width="436"/>
  <outline>
    <contour>
      <point x="186" y="698" type="line"/>
      <point x="186" y="0" type="line"/>
      <point x="279" y="0" type="line"/>
      <point x="279" y="710" type="line"/>
      <point x="195" y="710" type="line"/>
      <point x="57" y="678" type="line"/>
      <point x="57" y="631" type="line"/>
      <point x="254" y="669" type="line"/>
    </contour>
  </outline>
</glyph>
<glyph name="zero.old" format="1">
  <advance width="640"/>
  <outline>
    <contour>
      <point x="320" y="537" type="curve"/>
      <point x="166" y="537"/>
      <point x="42" y="422"/>
      <point x="42" y="263" type="curve" smooth="yes"/>
      <point x="42" y="104"/>
      <point x="166" y="-12"/>
      <point x="320" y="-12" type="curve"/>
      <point x="473" y="-12"/>
      <point x="597" y="104"/>
      <point x="597" y="262" type="curve" smooth="yes"/>
      <point x="597" y="421"/>
      <point x="473" y="537"/>
    </contour>
    <contour>
      <point x="320" y="489" type="curve"/>
      <point x="425" y="489"/>
      <point x="501" y="398"/>
      <point x="501" y="262" type="curve" smooth="yes"/>
      <point x="501" y="126"/>
      <point x="425" y="36"/>
      <point x="320" y="36" type="curve"/>
      <point x="214" y="36"/>
      <point x="138" y="127"/>
      <point x="138" y="263" type="curve" smooth="yes"/>
      <point x="138" y="399"/>
      <point x="214" y="489"/>
    </contour>
  </outline>
</glyph>
